<svg width="22" height="22" viewBox="0 0 22 22" fill="none" xmlns="http://www.w3.org/2000/svg">
<path d="M10.9999 0C8.89026 0 6.82796 0.625589 5.07384 1.79766C3.31972 2.96973 1.95254 4.63563 1.14521 6.58471C0.337874 8.53379 0.126638 10.6785 0.538214 12.7476C0.949789 14.8168 1.96569 16.7174 3.45745 18.2091C4.94921 19.7009 6.84983 20.7168 8.91896 21.1284C10.9881 21.54 13.1328 21.3287 15.0819 20.5214C17.031 19.714 18.6969 18.3469 19.8689 16.5927C21.041 14.8386 21.6666 12.7763 21.6666 10.6667C21.6666 7.83769 20.5428 5.12458 18.5424 3.12419C16.542 1.12381 13.8289 0 10.9999 0ZM17.9666 7.08667L9.20659 15.84L4.03326 10.6667C3.85645 10.4899 3.75711 10.25 3.75711 10C3.75711 9.74995 3.85645 9.51014 4.03326 9.33333C4.21007 9.15652 4.44987 9.05719 4.69992 9.05719C4.94997 9.05719 5.18978 9.15652 5.36659 9.33333L9.21992 13.1867L16.6466 5.76667C16.7341 5.67912 16.8381 5.60967 16.9525 5.56229C17.0668 5.51491 17.1894 5.49052 17.3133 5.49052C17.4371 5.49052 17.5597 5.51491 17.6741 5.56229C17.7884 5.60967 17.8924 5.67912 17.9799 5.76667C18.0675 5.85421 18.1369 5.95815 18.1843 6.07254C18.2317 6.18692 18.2561 6.30952 18.2561 6.43333C18.2561 6.55714 18.2317 6.67974 18.1843 6.79413C18.1369 6.90852 18.0675 7.01245 17.9799 7.1L17.9666 7.08667Z" fill="#06D6A0"/>
</svg>
