<svg width="240" height="36" viewBox="0 0 240 36" fill="none" xmlns="http://www.w3.org/2000/svg">
<path d="M35.672 19.28C35.672 17.904 35.928 16.696 36.44 15.656C36.968 14.616 37.68 13.816 38.576 13.256C39.472 12.696 40.472 12.416 41.576 12.416C42.456 12.416 43.256 12.6 43.976 12.968C44.712 13.336 45.288 13.832 45.704 14.456V8.24H49.808V26H45.704V24.08C45.32 24.72 44.768 25.232 44.048 25.616C43.344 26 42.52 26.192 41.576 26.192C40.472 26.192 39.472 25.912 38.576 25.352C37.68 24.776 36.968 23.968 36.44 22.928C35.928 21.872 35.672 20.656 35.672 19.28ZM45.704 19.304C45.704 18.28 45.416 17.472 44.84 16.88C44.28 16.288 43.592 15.992 42.776 15.992C41.96 15.992 41.264 16.288 40.688 16.88C40.128 17.456 39.848 18.256 39.848 19.28C39.848 20.304 40.128 21.12 40.688 21.728C41.264 22.32 41.96 22.616 42.776 22.616C43.592 22.616 44.28 22.32 44.84 21.728C45.416 21.136 45.704 20.328 45.704 19.304ZM56.9531 26.192C55.6411 26.192 54.4571 25.912 53.4011 25.352C52.3611 24.792 51.5371 23.992 50.9291 22.952C50.3371 21.912 50.0411 20.696 50.0411 19.304C50.0411 17.928 50.3451 16.72 50.9531 15.68C51.5611 14.624 52.3931 13.816 53.4491 13.256C54.5051 12.696 55.6891 12.416 57.0011 12.416C58.3131 12.416 59.4971 12.696 60.5531 13.256C61.6091 13.816 62.4411 14.624 63.0491 15.68C63.6571 16.72 63.9611 17.928 63.9611 19.304C63.9611 20.68 63.6491 21.896 63.0251 22.952C62.4171 23.992 61.5771 24.792 60.5051 25.352C59.4491 25.912 58.2651 26.192 56.9531 26.192ZM56.9531 22.64C57.7371 22.64 58.4011 22.352 58.9451 21.776C59.5051 21.2 59.7851 20.376 59.7851 19.304C59.7851 18.232 59.5131 17.408 58.9691 16.832C58.4411 16.256 57.7851 15.968 57.0011 15.968C56.2011 15.968 55.5371 16.256 55.0091 16.832C54.4811 17.392 54.2171 18.216 54.2171 19.304C54.2171 20.376 54.4731 21.2 54.9851 21.776C55.5131 22.352 56.1691 22.64 56.9531 22.64ZM63.4023 19.304C63.4023 17.912 63.6823 16.696 64.2423 15.656C64.8183 14.616 65.6103 13.816 66.6183 13.256C67.6423 12.696 68.8103 12.416 70.1223 12.416C71.8023 12.416 73.2023 12.856 74.3223 13.736C75.4583 14.616 76.2023 15.856 76.5543 17.456H72.1863C71.8183 16.432 71.1063 15.92 70.0503 15.92C69.2983 15.92 68.6983 16.216 68.2503 16.808C67.8023 17.384 67.5783 18.216 67.5783 19.304C67.5783 20.392 67.8023 21.232 68.2503 21.824C68.6983 22.4 69.2983 22.688 70.0503 22.688C71.1063 22.688 71.8183 22.176 72.1863 21.152H76.5543C76.2023 22.72 75.4583 23.952 74.3223 24.848C73.1863 25.744 71.7863 26.192 70.1223 26.192C68.8103 26.192 67.6423 25.912 66.6183 25.352C65.6103 24.792 64.8183 23.992 64.2423 22.952C63.6823 21.912 63.4023 20.696 63.4023 19.304ZM90.0536 12.608V26H85.9496V24.176C85.5336 24.768 84.9656 25.248 84.2456 25.616C83.5416 25.968 82.7576 26.144 81.8936 26.144C80.8696 26.144 79.9656 25.92 79.1816 25.472C78.3976 25.008 77.7896 24.344 77.3576 23.48C76.9256 22.616 76.7096 21.6 76.7096 20.432V12.608H80.7896V19.88C80.7896 20.776 81.0216 21.472 81.4856 21.968C81.9496 22.464 82.5736 22.712 83.3576 22.712C84.1576 22.712 84.7896 22.464 85.2536 21.968C85.7176 21.472 85.9496 20.776 85.9496 19.88V12.608H90.0536ZM108.169 12.464C109.833 12.464 111.153 12.968 112.129 13.976C113.121 14.984 113.617 16.384 113.617 18.176V26H109.537V18.728C109.537 17.864 109.305 17.2 108.841 16.736C108.393 16.256 107.769 16.016 106.969 16.016C106.169 16.016 105.537 16.256 105.073 16.736C104.625 17.2 104.401 17.864 104.401 18.728V26H100.321V18.728C100.321 17.864 100.089 17.2 99.6254 16.736C99.1774 16.256 98.5534 16.016 97.7534 16.016C96.9534 16.016 96.3214 16.256 95.8574 16.736C95.4094 17.2 95.1854 17.864 95.1854 18.728V26H91.0814V12.608H95.1854V14.288C95.6014 13.728 96.1454 13.288 96.8174 12.968C97.4894 12.632 98.2494 12.464 99.0974 12.464C100.105 12.464 101.001 12.68 101.785 13.112C102.585 13.544 103.209 14.16 103.657 14.96C104.121 14.224 104.753 13.624 105.553 13.16C106.353 12.696 107.225 12.464 108.169 12.464ZM127.192 19.088C127.192 19.472 127.168 19.872 127.12 20.288H117.832C117.896 21.12 118.16 21.76 118.624 22.208C119.104 22.64 119.688 22.856 120.376 22.856C121.4 22.856 122.112 22.424 122.512 21.56H126.88C126.656 22.44 126.248 23.232 125.656 23.936C125.08 24.64 124.352 25.192 123.472 25.592C122.592 25.992 121.608 26.192 120.52 26.192C119.208 26.192 118.04 25.912 117.016 25.352C115.992 24.792 115.192 23.992 114.616 22.952C114.04 21.912 113.752 20.696 113.752 19.304C113.752 17.912 114.032 16.696 114.592 15.656C115.168 14.616 115.968 13.816 116.992 13.256C118.016 12.696 119.192 12.416 120.52 12.416C121.816 12.416 122.968 12.688 123.976 13.232C124.984 13.776 125.768 14.552 126.328 15.56C126.904 16.568 127.192 17.744 127.192 19.088ZM122.992 18.008C122.992 17.304 122.752 16.744 122.272 16.328C121.792 15.912 121.192 15.704 120.472 15.704C119.784 15.704 119.2 15.904 118.72 16.304C118.256 16.704 117.968 17.272 117.856 18.008H122.992ZM135.597 12.464C137.165 12.464 138.413 12.976 139.341 14C140.285 15.008 140.757 16.4 140.757 18.176V26H136.677V18.728C136.677 17.832 136.445 17.136 135.981 16.64C135.517 16.144 134.893 15.896 134.109 15.896C133.325 15.896 132.701 16.144 132.237 16.64C131.773 17.136 131.541 17.832 131.541 18.728V26H127.437V12.608H131.541V14.384C131.957 13.792 132.517 13.328 133.221 12.992C133.925 12.64 134.717 12.464 135.597 12.464ZM149.153 22.52V26H147.065C145.577 26 144.417 25.64 143.585 24.92C142.753 24.184 142.337 22.992 142.337 21.344V16.016H140.705V12.608H142.337V9.344H146.441V12.608H149.129V16.016H146.441V21.392C146.441 21.792 146.537 22.08 146.729 22.256C146.921 22.432 147.241 22.52 147.689 22.52H149.153ZM151.869 19.304C151.869 17.912 152.149 16.696 152.709 15.656C153.285 14.616 154.077 13.816 155.085 13.256C156.109 12.696 157.277 12.416 158.589 12.416C160.269 12.416 161.669 12.856 162.789 13.736C163.925 14.616 164.669 15.856 165.021 17.456H160.653C160.285 16.432 159.573 15.92 158.517 15.92C157.765 15.92 157.165 16.216 156.717 16.808C156.269 17.384 156.045 18.216 156.045 19.304C156.045 20.392 156.269 21.232 156.717 21.824C157.165 22.4 157.765 22.688 158.517 22.688C159.573 22.688 160.285 22.176 160.653 21.152H165.021C164.669 22.72 163.925 23.952 162.789 24.848C161.653 25.744 160.253 26.192 158.589 26.192C157.277 26.192 156.109 25.912 155.085 25.352C154.077 24.792 153.285 23.992 152.709 22.952C152.149 21.912 151.869 20.696 151.869 19.304ZM173.528 12.464C175.064 12.464 176.296 12.976 177.224 14C178.152 15.008 178.616 16.4 178.616 18.176V26H174.536V18.728C174.536 17.832 174.304 17.136 173.84 16.64C173.376 16.144 172.752 15.896 171.968 15.896C171.184 15.896 170.56 16.144 170.096 16.64C169.632 17.136 169.4 17.832 169.4 18.728V26H165.296V8.24H169.4V14.408C169.816 13.816 170.384 13.344 171.104 12.992C171.824 12.64 172.632 12.464 173.528 12.464ZM192.172 19.088C192.172 19.472 192.148 19.872 192.1 20.288H182.812C182.876 21.12 183.14 21.76 183.604 22.208C184.084 22.64 184.668 22.856 185.356 22.856C186.38 22.856 187.092 22.424 187.492 21.56H191.86C191.636 22.44 191.228 23.232 190.636 23.936C190.06 24.64 189.332 25.192 188.452 25.592C187.572 25.992 186.588 26.192 185.5 26.192C184.188 26.192 183.02 25.912 181.996 25.352C180.972 24.792 180.172 23.992 179.596 22.952C179.02 21.912 178.732 20.696 178.732 19.304C178.732 17.912 179.012 16.696 179.572 15.656C180.148 14.616 180.948 13.816 181.972 13.256C182.996 12.696 184.172 12.416 185.5 12.416C186.796 12.416 187.948 12.688 188.956 13.232C189.964 13.776 190.748 14.552 191.308 15.56C191.884 16.568 192.172 17.744 192.172 19.088ZM187.972 18.008C187.972 17.304 187.732 16.744 187.252 16.328C186.772 15.912 186.172 15.704 185.452 15.704C184.764 15.704 184.18 15.904 183.7 16.304C183.236 16.704 182.948 17.272 182.836 18.008H187.972ZM191.601 19.304C191.601 17.912 191.881 16.696 192.441 15.656C193.017 14.616 193.809 13.816 194.817 13.256C195.841 12.696 197.009 12.416 198.321 12.416C200.001 12.416 201.401 12.856 202.521 13.736C203.657 14.616 204.401 15.856 204.753 17.456H200.385C200.017 16.432 199.305 15.92 198.249 15.92C197.497 15.92 196.897 16.216 196.449 16.808C196.001 17.384 195.777 18.216 195.777 19.304C195.777 20.392 196.001 21.232 196.449 21.824C196.897 22.4 197.497 22.688 198.249 22.688C199.305 22.688 200.017 22.176 200.385 21.152H204.753C204.401 22.72 203.657 23.952 202.521 24.848C201.385 25.744 199.985 26.192 198.321 26.192C197.009 26.192 195.841 25.912 194.817 25.352C193.809 24.792 193.017 23.992 192.441 22.952C191.881 21.912 191.601 20.696 191.601 19.304ZM213.212 26L209.132 20.384V26H205.028V8.24H209.132V18.056L213.188 12.608H218.252L212.684 19.328L218.3 26H213.212ZM230.568 19.088C230.568 19.472 230.544 19.872 230.496 20.288H221.208C221.272 21.12 221.536 21.76 222 22.208C222.48 22.64 223.064 22.856 223.752 22.856C224.776 22.856 225.488 22.424 225.888 21.56H230.256C230.032 22.44 229.624 23.232 229.032 23.936C228.456 24.64 227.728 25.192 226.848 25.592C225.968 25.992 224.984 26.192 223.896 26.192C222.584 26.192 221.416 25.912 220.392 25.352C219.368 24.792 218.568 23.992 217.992 22.952C217.416 21.912 217.128 20.696 217.128 19.304C217.128 17.912 217.408 16.696 217.968 15.656C218.544 14.616 219.344 13.816 220.368 13.256C221.392 12.696 222.568 12.416 223.896 12.416C225.192 12.416 226.344 12.688 227.352 13.232C228.36 13.776 229.144 14.552 229.704 15.56C230.28 16.568 230.568 17.744 230.568 19.088ZM226.368 18.008C226.368 17.304 226.128 16.744 225.648 16.328C225.168 15.912 224.568 15.704 223.848 15.704C223.16 15.704 222.576 15.904 222.096 16.304C221.632 16.704 221.344 17.272 221.232 18.008H226.368ZM234.917 14.84C235.397 14.104 235.997 13.528 236.717 13.112C237.437 12.68 238.237 12.464 239.117 12.464V16.808H237.989C236.965 16.808 236.197 17.032 235.685 17.48C235.173 17.912 234.917 18.68 234.917 19.784V26H230.813V12.608H234.917V14.84Z" fill="white"/>
<g clip-path="url(#clip0_167_15324)">
<path d="M6.88623 17.125L12.1362 23.25L27.0112 4.875" stroke="white" stroke-width="2" stroke-miterlimit="10" stroke-linecap="round" stroke-linejoin="round"/>
<path d="M23.3813 18C23.7392 20.2971 23.3846 22.6488 22.3653 24.7382C21.3461 26.8277 19.7111 28.5548 17.6806 29.6869C15.65 30.819 13.3213 31.3017 11.008 31.0702C8.69477 30.8387 6.50798 29.9039 4.74207 28.3918C2.97616 26.8798 1.71593 24.8629 1.13104 22.6129C0.546148 20.3628 0.664685 17.9876 1.47069 15.8069C2.27669 13.6263 3.73147 11.745 5.63915 10.4162C7.54683 9.08745 9.81582 8.37508 12.1407 8.37501C13.6423 8.37304 15.1295 8.66942 16.5157 9.24695" stroke="white" stroke-width="2" stroke-miterlimit="10" stroke-linecap="round" stroke-linejoin="round"/>
</g>
<defs>
<clipPath id="clip0_167_15324">
<rect width="28" height="28" fill="white" transform="translate(0 4)"/>
</clipPath>
</defs>
</svg>
